name Walk10.mot
datacolumns 19
datarows 22
range 1.49000000 1.59500000
endheader

                time	   L_ground_force_vx	   L_ground_force_vy	   L_ground_force_vz	   L_ground_force_px	   L_ground_force_py	   L_ground_force_pz	   R_ground_force_vx	   R_ground_force_vy	   R_ground_force_vz	   R_ground_force_px	   R_ground_force_py	   R_ground_force_pz	   L_ground_torque_x	   L_ground_torque_y	   L_ground_torque_z	   R_ground_torque_x	   R_ground_torque_y	   R_ground_torque_z	
          1.49000000	          0.00000000	         -0.00000000	          0.00000000	         -0.00000000	          0.00000000	         -0.00000000	         35.16277213	        696.31516914	         -6.75279721	         -0.10688817	          0.00000000	          0.37963019	          0.00000000	          0.00000000	          0.00000000	          0.00000000	          0.07620762	          0.00000000	
          1.49500000	         -0.00000000	          0.00000000	          0.00000000	          0.00000000	          0.00000000	          0.00000000	         38.55221077	        707.46017026	         -6.51445926	         -0.10536110	          0.00000000	          0.37941952	          0.00000000	         -0.00000000	          0.00000000	          0.00000000	          0.05674766	          0.00000000	
          1.50000000	         -0.00000000	          0.00000000	         -0.00000000	          0.00000000	          0.00000000	          0.00000000	         42.03766916	        717.24813388	         -6.71523208	         -0.10366145	          0.00000000	          0.37922965	          0.00000000	         -0.00000000	          0.00000000	          0.00000000	         -0.06261766	          0.00000000	
          1.50500000	         -0.00000000	          0.00000001	         -0.00000000	         -0.00000000	          0.00000000	         -0.00000000	         45.62725326	        725.99974557	         -7.21100395	         -0.10212700	          0.00000000	          0.37894467	          0.00000000	         -0.00000000	          0.00000000	          0.00000000	         -0.32322994	          0.00000000	
          1.51000000	          0.00000000	         -0.00000001	         -0.00000000	         -0.00000000	          0.00000000	         -0.00000000	         49.33993344	        734.17560873	         -7.55894476	         -0.10076672	          0.00000000	          0.37871569	          0.00000000	          0.00000000	          0.00000000	          0.00000000	         -0.52738524	          0.00000000	
          1.51500000	          0.00000000	         -0.00000009	          0.00000000	         -0.00000000	          0.00000000	         -0.00000000	         53.18407218	        741.57056485	         -7.66311183	         -0.09928459	          0.00000000	          0.37863449	          0.00000000	          0.00000000	          0.00000000	          0.00000000	         -0.59352263	          0.00000000	
          1.52000000	         -0.00000000	         -0.00000010	          0.00000001	          0.00000000	          0.00000000	          0.00000000	         57.23683007	        748.39162000	         -7.61839953	         -0.09797476	          0.00000000	          0.37834149	          0.00000000	          0.00000000	          0.00000000	          0.00000000	         -0.58957344	          0.00000000	
          1.52500000	         -0.00000005	          0.00000055	         -0.00000001	          0.00000000	          0.00000000	          0.00000000	         61.70506792	        754.62037552	         -7.36037303	         -0.09688911	          0.00000000	          0.37784349	          0.00000000	         -0.00000000	          0.00000000	          0.00000000	         -0.56967204	          0.00000000	
          1.53000000	         -0.00000010	          0.00000239	         -0.00000013	          0.00000000	          0.00000000	          0.00000000	         66.64465267	        759.59178544	         -6.85650412	         -0.09598947	          0.00000000	          0.37746315	          0.00000000	         -0.00000000	          0.00000000	          0.00000000	         -0.59487608	          0.00000000	
          1.53500000	          0.00000019	          0.00000112	         -0.00000025	         -0.00000001	          0.00000000	         -0.00000001	         71.79518614	        763.27590230	         -6.11646208	         -0.09519988	          0.00000000	          0.37715767	          0.00000000	          0.00000000	          0.00000000	          0.00000000	         -0.56943307	          0.00000000	
          1.54000000	          0.00000144	         -0.00001915	          0.00000051	         -0.00000005	          0.00000000	         -0.00000004	         77.01664949	        765.88302615	         -5.16618102	         -0.09439855	          0.00000000	          0.37693072	          0.00000000	          0.00000002	          0.00000000	          0.00000000	         -0.43874986	          0.00000000	
          1.54500000	          0.00000196	         -0.00006000	          0.00000362	         -0.00000003	          0.00000000	         -0.00000002	         82.31899348	        767.36878913	         -4.14472301	         -0.09365313	          0.00000000	          0.37677692	          0.00000000	          0.00000005	          0.00000000	          0.00000000	         -0.29679152	          0.00000000	
          1.55000000	         -0.00000818	          0.00002075	          0.00000465	          0.00000036	          0.00000000	          0.00000027	         87.66508857	        767.38928771	         -3.08315638	         -0.09287324	          0.00000000	          0.37657963	          0.00000000	         -0.00000010	          0.00000000	          0.00000000	         -0.19711807	          0.00000000	
          1.55500000	         -0.00003926	          0.00060674	         -0.00002128	          0.00000124	          0.00000000	          0.00000090	         92.80861634	        765.85672805	         -1.93906188	         -0.09215343	          0.00000000	          0.37632389	          0.00000000	         -0.00000068	          0.00000000	          0.00000000	         -0.15492243	          0.00000000	
          1.56000000	         -0.00002649	          0.00138331	         -0.00009805	         -0.00000015	          0.00000000	         -0.00000012	         97.56659114	        763.10321242	         -0.75429843	         -0.09162933	          0.00000000	          0.37586404	          0.00000000	         -0.00000088	          0.00000000	          0.00000000	         -0.04520009	          0.00000000	
          1.56500000	          0.00029303	         -0.00200179	         -0.00005837	         -0.00001177	          0.00000000	         -0.00000859	        102.05492832	        758.89781082	          0.30689857	         -0.09115026	          0.00000000	          0.37541038	          0.00000000	          0.00000396	          0.00000000	          0.00000000	          0.10883049	          0.00000000	
          1.57000000	          0.00100456	         -0.01794251	          0.00075211	         -0.00002919	          0.00000000	         -0.00002123	        106.41708520	        752.98642041	          1.21164889	         -0.09061597	          0.00000000	          0.37522941	          0.00000000	          0.00001834	          0.00000000	          0.00000000	          0.18483457	          0.00000000	
          1.57500000	         -0.00009358	         -0.02811317	          0.00248967	          0.00003274	          0.00000000	          0.00002409	        110.62771432	        745.73727793	          1.90790146	         -0.08995603	          0.00000000	          0.37515395	          0.00000000	          0.00001113	          0.00000000	          0.00000000	          0.20029141	          0.00000000	
          1.58000000	         -0.00950038	          0.09239591	         -0.00047042	          0.00035395	          0.00000000	          0.00025817	        114.61663760	        737.17815705	          2.22187195	         -0.08931127	          0.00000000	          0.37515067	          0.00000000	         -0.00014009	          0.00000000	          0.00000000	          0.10741847	          0.00000000	
          1.58500000	         -0.02379103	          0.49884374	         -0.02416429	          0.00061674	          0.00000000	          0.00044793	        118.27664136	        727.37863755	          2.16313034	         -0.08878839	          0.00000000	          0.37517617	          0.00000000	         -0.00046613	          0.00000000	          0.00000000	         -0.02001076	          0.00000000	
          1.59000000	          0.02581329	          0.44302011	         -0.05837103	         -0.00166137	          0.00000000	         -0.00121679	        121.71328699	        716.73916873	          1.71810546	         -0.08837440	          0.00000000	          0.37500105	          0.00000000	          0.00008135	          0.00000000	          0.00000000	         -0.09385360	          0.00000000	
          1.59500000	          0.28623166	         -3.44746515	          0.07121393	         -0.00999483	          0.00000000	         -0.00728543	        125.09609603	        705.31567388	          0.99393410	         -0.08809861	          0.00000000	          0.37454025	          0.00000000	          0.00450675	          0.00000000	          0.00000000	         -0.10840066	          0.00000000	
